HIERARCHY
ROOT Hips
{
  OFFSET 12.5924 87.7646 8.5502
  CHANNELS 6 Xposition Yposition Zposition Zrotation Xrotation Yrotation
  JOINT RightUpLeg
  {
    OFFSET -9.27424 -1.51647 -0.00177081
    CHANNELS 3 Zrotation Xrotation Yrotation
    JOINT RightLeg
    {
      OFFSET -0.0218595 -41.9179 0.0996455
      CHANNELS 3 Zrotation Xrotation Yrotation
      JOINT RightFoot
      {
        OFFSET -0.864559 -41.9626 -0.357059
        CHANNELS 3 Zrotation Xrotation Yrotation
        End Site
        {
          OFFSET 0 -7.69 17.5
        }
      }
    }
  }
  JOINT LeftUpLeg
  {
    OFFSET 9.25718 -1.5867 0.052377
    CHANNELS 3 Zrotation Xrotation Yrotation
    JOINT LeftLeg
    {
      OFFSET 0.0916619 -41.8676 0.000817906
      CHANNELS 3 Zrotation Xrotation Yrotation
      JOINT LeftFoot
      {
        OFFSET -0.467602 -41.8546 0.208385
        CHANNELS 3 Zrotation Xrotation Yrotation
        End Site
        {
          OFFSET 0 -7.69 17.5
        }
      }
    }
  }
  JOINT Spine
  {
    OFFSET 0.0181296 14.2981 0.0454815
    CHANNELS 3 Zrotation Xrotation Yrotation
    JOINT Spine1
    {
      OFFSET 0.0179205 9.71532 0.0144816
      CHANNELS 3 Zrotation Xrotation Yrotation
      JOINT Spine2
      {
        OFFSET 0.0460832 10.1118 -0.00781291
        CHANNELS 3 Zrotation Xrotation Yrotation
        JOINT Spine3
        {
          OFFSET 0.0326005 9.72657 -0.000132442
          CHANNELS 3 Zrotation Xrotation Yrotation
          JOINT Neck
          {
            OFFSET -0.0594321 10.3688 0.0892585
            CHANNELS 3 Zrotation Xrotation Yrotation
            JOINT Head
            {
              OFFSET -0.027184 9.52116 0.11923
              CHANNELS 3 Zrotation Xrotation Yrotation
              End Site
              {
                OFFSET 0 15.95 0
              }
            }
          }
          JOINT RightShoulder
          {
            OFFSET -3.18249 6.94712 0.0315742
            CHANNELS 3 Zrotation Xrotation Yrotation
            JOINT RightArm
            {
              OFFSET -12.6859 -0.0281953 -0.0223312
              CHANNELS 3 Zrotation Xrotation Yrotation
              JOINT RightForeArm
              {
                OFFSET -26.4349 -0.138904 0.103809
                CHANNELS 3 Zrotation Xrotation Yrotation
                JOINT RightHand
                {
                  OFFSET -26.0404 -0.036643 0.02476
                  CHANNELS 3 Zrotation Xrotation Yrotation
                  JOINT RightHandThumb1
                  {
                    OFFSET -2.48905 0.190105 3.12053
                    CHANNELS 3 Zrotation Xrotation Yrotation
                    JOINT RightHandThumb2
                    {
                      OFFSET -3.68274 0 0
                      CHANNELS 3 Zrotation Xrotation Yrotation
                      JOINT RightHandThumb3
                      {
                        OFFSET -2.55832 0 0
                        CHANNELS 3 Zrotation Xrotation Yrotation
                        End Site
                        {
                          OFFSET -2.194 0 0
                        }
                      }
                    }
                  }
                  JOINT RightInHandIndex
                  {
                    OFFSET -3.22368 0.508421 1.97842
                    CHANNELS 3 Zrotation Xrotation Yrotation
                    JOINT RightHandIndex1
                    {
                      OFFSET -5.21684 -0.091368 0.999158
                      CHANNELS 3 Zrotation Xrotation Yrotation
                      JOINT RightHandIndex2
                      {
                        OFFSET -3.61937 0 0
                        CHANNELS 3 Zrotation Xrotation Yrotation
                        JOINT RightHandIndex3
                        {
                          OFFSET -2.0521 0 0
                          CHANNELS 3 Zrotation Xrotation Yrotation
                          End Site
                          {
                            OFFSET -1.805 0 0
                          }
                        }
                      }
                    }
                  }
                  JOINT RightInHandMiddle
                  {
                    OFFSET -3.38211 0.517263 0.756737
                    CHANNELS 3 Zrotation Xrotation Yrotation
                    JOINT RightHandMiddle1
                    {
                      OFFSET -5.17411 -0.084 0.313895
                      CHANNELS 3 Zrotation Xrotation Yrotation
                      JOINT RightHandMiddle2
                      {
                        OFFSET -3.94947 0 0
                        CHANNELS 3 Zrotation Xrotation Yrotation
                        JOINT RightHandMiddle3
                        {
                          OFFSET -2.47579 0 0
                          CHANNELS 3 Zrotation Xrotation Yrotation
                          End Site
                          {
                            OFFSET -1.975 0 0
                          }
                        }
                      }
                    }
                  }
                  JOINT RightInHandRing
                  {
                    OFFSET -3.36516 0.537895 -0.128947
                    CHANNELS 3 Zrotation Xrotation Yrotation
                    JOINT RightHandRing1
                    {
                      OFFSET -4.63474 -0.022105 -0.478947
                      CHANNELS 3 Zrotation Xrotation Yrotation
                      JOINT RightHandRing2
                      {
                        OFFSET -3.44238 0 0
                        CHANNELS 3 Zrotation Xrotation Yrotation
                        JOINT RightHandRing3
                        {
                          OFFSET -2.3881 0 0
                          CHANNELS 3 Zrotation Xrotation Yrotation
                          End Site
                          {
                            OFFSET -1.857 0 0
                          }
                        }
                      }
                    }
                  }
                  JOINT RightInHandPinky
                  {
                    OFFSET -3.16105 0.469368 -1.20179
                    CHANNELS 3 Zrotation Xrotation Yrotation
                    JOINT RightHandPinky1
                    {
                      OFFSET -4.14105 -0.022105 -1.09053
                      CHANNELS 3 Zrotation Xrotation Yrotation
                      JOINT RightHandPinky2
                      {
                        OFFSET -2.75653 0 0
                        CHANNELS 3 Zrotation Xrotation Yrotation
                        JOINT RightHandPinky3
                        {
                          OFFSET -1.74189 0 0
                          CHANNELS 3 Zrotation Xrotation Yrotation
                          End Site
                          {
                            OFFSET -1.645 0 0
                          }
                        }
                      }
                    }
                  }
                }
              }
            }
          }
          JOINT LeftShoulder
          {
            OFFSET 3.21289 6.91298 -0.0113859
            CHANNELS 3 Zrotation Xrotation Yrotation
            JOINT LeftArm
            {
              OFFSET 12.7691 -0.0256594 -0.0399854
              CHANNELS 3 Zrotation Xrotation Yrotation
              JOINT LeftForeArm
              {
                OFFSET 26.4177 -0.0137926 -0.00219879
                CHANNELS 3 Zrotation Xrotation Yrotation
                JOINT LeftHand
                {
                  OFFSET 26.0013 -0.0633708 -0.0119906
                  CHANNELS 3 Zrotation Xrotation Yrotation
                  JOINT LeftHandThumb1
                  {
                    OFFSET 2.48905 0.190105 3.12053
                    CHANNELS 3 Zrotation Xrotation Yrotation
                    JOINT LeftHandThumb2
                    {
                      OFFSET 3.68274 0 0
                      CHANNELS 3 Zrotation Xrotation Yrotation
                      JOINT LeftHandThumb3
                      {
                        OFFSET 2.55832 0 0
                        CHANNELS 3 Zrotation Xrotation Yrotation
                        End Site
                        {
                          OFFSET 2.194 0 0
                        }
                      }
                    }
                  }
                  JOINT LeftInHandIndex
                  {
                    OFFSET 3.22368 0.508421 1.97842
                    CHANNELS 3 Zrotation Xrotation Yrotation
                    JOINT LeftHandIndex1
                    {
                      OFFSET 5.21684 -0.091368 0.999158
                      CHANNELS 3 Zrotation Xrotation Yrotation
                      JOINT LeftHandIndex2
                      {
                        OFFSET 3.61937 0 0
                        CHANNELS 3 Zrotation Xrotation Yrotation
                        JOINT LeftHandIndex3
                        {
                          OFFSET 2.0521 0 0
                          CHANNELS 3 Zrotation Xrotation Yrotation
                          End Site
                          {
                            OFFSET 1.805 0 0
                          }
                        }
                      }
                    }
                  }
                  JOINT LeftInHandMiddle
                  {
                    OFFSET 3.38211 0.517263 0.756737
                    CHANNELS 3 Zrotation Xrotation Yrotation
                    JOINT LeftHandMiddle1
                    {
                      OFFSET 5.17411 -0.084 0.313895
                      CHANNELS 3 Zrotation Xrotation Yrotation
                      JOINT LeftHandMiddle2
                      {
                        OFFSET 3.94947 0 0
                        CHANNELS 3 Zrotation Xrotation Yrotation
                        JOINT LeftHandMiddle3
                        {
                          OFFSET 2.47579 0 0
                          CHANNELS 3 Zrotation Xrotation Yrotation
                          End Site
                          {
                            OFFSET 1.975 0 0
                          }
                        }
                      }
                    }
                  }
                  JOINT LeftInHandRing
                  {
                    OFFSET 3.36516 0.537895 -0.128947
                    CHANNELS 3 Zrotation Xrotation Yrotation
                    JOINT LeftHandRing1
                    {
                      OFFSET 4.63474 -0.022105 -0.478947
                      CHANNELS 3 Zrotation Xrotation Yrotation
                      JOINT LeftHandRing2
                      {
                        OFFSET 3.44238 0 0
                        CHANNELS 3 Zrotation Xrotation Yrotation
                        JOINT LeftHandRing3
                        {
                          OFFSET 2.3881 0 0
                          CHANNELS 3 Zrotation Xrotation Yrotation
                          End Site
                          {
                            OFFSET 1.857 0 0
                          }
                        }
                      }
                    }
                  }
                  JOINT LeftInHandPinky
                  {
                    OFFSET 3.16105 0.469368 -1.20179
                    CHANNELS 3 Zrotation Xrotation Yrotation
                    JOINT LeftHandPinky1
                    {
                      OFFSET 4.14105 -0.022105 -1.09053
                      CHANNELS 3 Zrotation Xrotation Yrotation
                      JOINT LeftHandPinky2
                      {
                        OFFSET 2.75653 0 0
                        CHANNELS 3 Zrotation Xrotation Yrotation
                        JOINT LeftHandPinky3
                        {
                          OFFSET 1.74189 0 0
                          CHANNELS 3 Zrotation Xrotation Yrotation
                          End Site
                          {
                            OFFSET 1.645 0 0
                          }
                        }
                      }
                    }
                  }
                }
              }
            }
          }
        }
      }
    }
  }
}
MOTION
Frames: 2
Frame Time: 0.00833333
7.666211303114660041e+02 8.805947452726996971e+01 7.444239584439006130e+00 2.428670477149267981e+01 -1.286895504725708506e+01 -1.237234221566404955e+02 -4.826113369528927777e+00 -5.776973844090260712e+01 1.056252152810266409e+01 6.857898659162213306e+00 3.265686346060965661e+01 -1.553985794890148853e+01 4.975659499317460543e+00 -4.205208584888054268e+00 2.836132841636984736e+01 1.606914350647911505e+01 -5.530695576438247940e+01 6.895644848892795942e+00 5.361524435536768607e+00 3.272487136195299939e+01 7.511537903126240145e+00 -1.142797857094285874e+01 -1.496367036966830932e+00 -1.233554652514817773e-01 5.418986276014287062e-02 1.476893205066076042e+01 2.869107581979362998e+00 7.941729835575637997e-02 3.747366629622151279e+00 7.723832743521703570e-01 1.065723499058220530e-01 6.169855513443673445e+00 1.340388992134527779e+00 -5.833830475815946492e-01 8.559041650075543961e-01 -4.558611620297691736e-01 -6.152376693708775379e-01 8.444612655286852787e-01 -3.033444367768982075e-01 -9.496995679675654500e+00 1.477236629970616022e+01 -9.756198854760141259e+00 3.996325978373405974e+00 -9.525167978162664140e-01 5.661612348932427707e+00 6.147760088788393062e+01 2.214509881137460567e+01 6.098847337726812157e+01 4.899850836574943358e+00 -3.439202447131076212e+01 1.285892063592785073e-01 1.396482373087448892e+01 -2.813091953190991745e+01 7.314389888137295515e+00 2.818400000000000105e+01 1.072940000000000005e+01 1.915919999999999845e+01 3.306686860850718121e-15 2.110925567968384365e-15 -1.000000000000000000e+01 5.678175464613086139e-15 5.614189867094050053e-15 -1.000000000000000000e+01 1.829735670418709637e-15 7.153700611997430673e-16 -2.755897780853632380e-15 1.998179999999999978e+01 8.718970000000000331e-01 2.396399999999999864e+00 2.400000000000000000e+01 1.033475450742496013e-15 -2.394791369090829681e-15 2.000000000000000000e+01 -8.594002604333035206e-16 2.154916796220191612e-15 1.829735670418709637e-15 7.153700611997430673e-16 -2.755897780853632380e-15 2.000000000000000000e+01 -1.463692952448181095e-15 -1.545252531502184387e-15 2.400000000000000000e+01 -2.089771244863521746e-16 2.342451616913756180e-15 2.000000000000000000e+01 4.365419297820701119e-16 -1.491006950704055105e-15 1.829735670418709637e-15 7.153700611997430673e-16 -2.755897780853632380e-15 1.997479999999999833e+01 -1.025649999999999951e+00 -2.819380000000000219e+00 2.400000000000000000e+01 -2.708192947335273020e-15 -3.580942611021762315e-15 2.000000000000000000e+01 2.783453024326187502e-15 -4.589648973875498628e-15 1.829735670418709637e-15 7.153700611997430673e-16 -2.755897780853632380e-15 1.978150000000000119e+01 -3.009479999999999933e+00 -8.305149999999999366e+00 2.400000000000000000e+01 3.367043158877935099e-15 1.012892684805930048e-15 2.000000000000000000e+01 8.965857745199116896e-16 -2.818830899576355591e-15 -1.432568308939593749e+01 -1.170754798322050405e+01 -1.228757719093232836e+01 -3.428175914488444675e+01 4.961545554593260476e+01 -6.186726638275623458e+01 -2.557430470706040992e+01 -7.326222972210841533e+01 -3.197421146779457857e+01 -2.141474607567189281e+01 -7.340400193675549190e+01 -3.074479246515353736e+01 -2.818400000000000105e+01 1.072940000000000005e+01 -1.915919999999999845e+01 3.100307973550130507e-15 -3.639808347372898904e-16 1.000000000000000000e+01 3.799190312928614611e-15 -6.105753147871373716e-15 1.000000000000000000e+01 -4.111764289341041212e-15 -1.815971824719677755e-15 -2.088530209866079423e-15 -1.998179999999999978e+01 8.718970000000000331e-01 -2.396399999999999864e+00 -2.400000000000000000e+01 -4.351874254879769980e-15 2.800922113115846924e-15 -2.000000000000000000e+01 -6.475071936640636195e-16 -5.334419048139543131e-15 -4.111764289341041212e-15 -1.815971824719677755e-15 -2.088530209866079423e-15 -2.000000000000000000e+01 -2.810741695590510197e-15 -5.065197472276412769e-16 -2.400000000000000000e+01 3.868470851807186628e-15 3.149143703334589056e-15 -2.000000000000000000e+01 1.799111359646351993e-15 -1.513795440748399735e-15 -4.111764289341041212e-15 -1.815971824719677755e-15 -2.088530209866079423e-15 -1.997479999999999833e+01 -1.025649999999999951e+00 2.819380000000000219e+00 -2.400000000000000000e+01 1.812242307130507825e-15 2.425987278840078548e-15 -2.000000000000000000e+01 3.259160129811373760e-15 -2.512729146767370544e-15 -4.111764289341041212e-15 -1.815971824719677755e-15 -2.088530209866079423e-15 -1.978150000000000119e+01 -3.009479999999999933e+00 8.305149999999999366e+00 -2.400000000000000000e+01 4.778288533694669547e-15 -6.856029601598163143e-16 -2.000000000000000000e+01 4.819097669155593997e-17 3.887056267697344579e-16
7.666096154376148206e+02 8.805248833324057500e+01 7.474859351927517714e+00 2.427037357357795955e+01 -1.286006303800447270e+01 -1.239162611406244139e+02 -4.571622101455233178e+00 -5.776748161370259282e+01 1.077811979039827861e+01 6.795970103057912048e+00 3.264729972735106145e+01 -1.545672940755713043e+01 4.992561484899860069e+00 -4.167579434123355853e+00 2.840731622649625265e+01 1.628009452155249903e+01 -5.526162437200911626e+01 7.077983928652653134e+00 5.323375921898779950e+00 3.281149637986872847e+01 7.553259828836232259e+00 -1.142420805665601513e+01 -1.557784376634835377e+00 -6.569255405523050095e-02 9.433428364813635503e-02 1.477824377511666576e+01 2.779362181615595784e+00 8.713666818467488695e-02 3.753853177066973856e+00 7.508769202161476031e-01 1.198067682804122847e-01 6.177852875681205447e+00 1.303257116702859708e+00 -5.928312900871275382e-01 8.527284322799257854e-01 -4.439496812037341811e-01 -6.176013066945531538e-01 8.424320032742097508e-01 -3.216392381718771176e-01 -9.726225621551238376e+00 1.470809977964541204e+01 -9.492866426221068465e+00 3.967637081882901207e+00 -9.890927826365266684e-01 5.604618491391938129e+00 6.167403283298368422e+01 2.180211345670746681e+01 6.077085670606262369e+01 5.185387602115659966e+00 -3.432371530717442454e+01 7.375384245717665488e-01 1.359179480657129346e+01 -2.806802226726855665e+01 7.153977989152344286e+00 2.818400000000000105e+01 1.072940000000000005e+01 1.915919999999999845e+01 3.279178006263549014e-15 2.068478586580914228e-15 -1.000000000000000000e+01 5.428950453159091225e-15 5.517219213422479634e-15 -1.000000000000000000e+01 1.821649491834579676e-15 7.302306110907120461e-16 -2.719980198175715412e-15 1.998179999999999978e+01 8.718970000000000331e-01 2.396399999999999864e+00 2.400000000000000000e+01 9.835017057051083274e-16 -2.485277429419732551e-15 2.000000000000000000e+01 -8.630711853120856251e-16 2.148390018005796102e-15 1.821649491834579676e-15 7.302306110907120461e-16 -2.719980198175715412e-15 2.000000000000000000e+01 -1.414453225777551943e-15 -1.433873054753293621e-15 2.400000000000000000e+01 -2.415879129591326547e-16 2.138579897571664613e-15 2.000000000000000000e+01 4.431601742033620157e-16 -1.402853615718597900e-15 1.821649491834579676e-15 7.302306110907120461e-16 -2.719980198175715412e-15 1.997479999999999833e+01 -1.025649999999999951e+00 -2.819380000000000219e+00 2.400000000000000000e+01 -2.596808256718760284e-15 -3.570316595439292010e-15 2.000000000000000000e+01 2.752149383959356461e-15 -4.432424553233885108e-15 1.821649491834579676e-15 7.302306110907120461e-16 -2.719980198175715412e-15 1.978150000000000119e+01 -3.009479999999999933e+00 -8.305149999999999366e+00 2.400000000000000000e+01 3.547127610362265587e-15 2.074393263873528295e-15 2.000000000000000000e+01 8.943929629021979553e-16 -2.742012197035875814e-15 -1.425084104668791340e+01 -1.178723298995915592e+01 -1.228829624944795285e+01 -3.396161502922922182e+01 4.958738866163926673e+01 -6.228734493234099290e+01 -2.529876343207475031e+01 -7.297894767147541017e+01 -3.175398263444597902e+01 -2.059300029735564408e+01 -7.322406209074452477e+01 -3.028672425424185732e+01 -2.818400000000000105e+01 1.072940000000000005e+01 -1.915919999999999845e+01 3.215679814414439058e-15 -3.816041282364857424e-16 1.000000000000000000e+01 3.982165831761078862e-15 -6.065926418890769463e-15 1.000000000000000000e+01 -4.128552332352582780e-15 -1.868147504879887497e-15 -2.064610444178441752e-15 -1.998179999999999978e+01 8.718970000000000331e-01 -2.396399999999999864e+00 -2.400000000000000000e+01 -4.490466195613503112e-15 3.396438142209971309e-15 -2.000000000000000000e+01 -6.224612936571079061e-16 -5.169302338920154513e-15 -4.128552332352582780e-15 -1.868147504879887497e-15 -2.064610444178441752e-15 -2.000000000000000000e+01 -2.900371708165808387e-15 -2.872470513388955737e-16 -2.400000000000000000e+01 3.604793807314946301e-15 3.866196594157797318e-15 -2.000000000000000000e+01 1.628134014342200010e-15 -1.534164172207979178e-15 -4.128552332352582780e-15 -1.868147504879887497e-15 -2.064610444178441752e-15 -1.997479999999999833e+01 -1.025649999999999951e+00 2.819380000000000219e+00 -2.400000000000000000e+01 1.638915294077548729e-15 2.995916028243148292e-15 -2.000000000000000000e+01 3.121474070587346262e-15 -2.611523105285246301e-15 -4.128552332352582780e-15 -1.868147504879887497e-15 -2.064610444178441752e-15 -1.978150000000000119e+01 -3.009479999999999933e+00 8.305149999999999366e+00 -2.400000000000000000e+01 4.386635749341320667e-15 2.775130747784628959e-16 -2.000000000000000000e+01 -5.786261226299190852e-17 2.633137202359246840e-16
